<?xml version="1.0" standalone="no"?>
<!DOCTYPE svg PUBLIC "-//W3C//DTD SVG 20010904//EN"
 "http://www.w3.org/TR/2001/REC-SVG-20010904/DTD/svg10.dtd">
<svg version="1.0" xmlns="http://www.w3.org/2000/svg"
 width="1569.000000pt" height="1569.000000pt" viewBox="0 0 1569.000000 1569.000000"
 preserveAspectRatio="xMidYMid meet">
<metadata>
Created by potrace 1.14, written by Peter Selinger 2001-2017
</metadata>
<g transform="translate(0.000000,1569.000000) scale(0.100000,-0.100000)"
fill="#000000" stroke="none">
<path d="M15 12030 c-2 -3 -3 -1249 -3 -2769 l0 -2763 37 36 c20 19 322 321
671 670 l635 636 5 1417 5 1418 85 2 c47 1 652 2 1344 3 l1260 1 1418 -1418
1418 -1418 -1420 -1420 -1421 -1420 -1112 1 c-611 1 -1219 2 -1351 3 l-238 2
-669 -670 c-368 -369 -669 -674 -669 -679 0 -4 1035 -7 2300 -7 l2300 0 1615
1615 c889 888 1831 1831 2095 2095 l480 479 -2095 2096 -2095 2095 -2296 0
c-1263 0 -2297 -2 -2299 -5z"/>
<path d="M9601 10556 l-1484 -1484 140 -138 c637 -630 815 -804 821 -804 4 0
583 576 1287 1281 l1280 1280 1340 -1 c737 -1 1345 -1 1350 -1 8 1 1300 1286
1354 1346 2 3 -1033 5 -2300 5 l-2304 0 -1484 -1484z"/>
<path d="M12163 7195 l-668 -670 1420 -3 1420 -2 -2 -746 c-1 -410 -4 -748 -7
-752 -4 -3 -609 -7 -1345 -8 l-1338 -2 -1289 1289 -1289 1289 -110 -109 c-60
-61 -276 -275 -479 -476 l-370 -367 1200 -1198 c659 -659 1329 -1329 1489
-1489 l290 -292 1675 1 c921 0 1945 0 2275 -1 330 0 610 0 623 0 l22 1 0 2093
c0 1150 -4 2098 -8 2105 -7 10 -283 12 -1425 10 l-1416 -3 -668 -670z"/>
</g>
</svg>
